<?xml version="1.0" standalone="no"?>
<!DOCTYPE svg PUBLIC "-//W3C//DTD SVG 20010904//EN"
 "http://www.w3.org/TR/2001/REC-SVG-20010904/DTD/svg10.dtd">
<svg version="1.0" xmlns="http://www.w3.org/2000/svg"
 width="300.000000pt" height="220.000000pt" viewBox="0 0 300.000000 220.000000"
 preserveAspectRatio="xMidYMid meet">
<metadata>
Created by potrace 1.10, written by Peter Selinger 2001-2011
</metadata>
<g transform="translate(0.000000,220.000000) scale(0.100000,-0.100000)"
fill="#000000" stroke="none">
<path d="M1933 2077 c-13 -5 -32 -30 -44 -54 -24 -49 -52 -65 -104 -60 -37 5
-83 -12 -104 -37 -12 -14 -10 -24 13 -71 40 -78 17 -105 -94 -109 -19 0 -37
-4 -40 -8 -3 -4 -21 -9 -40 -13 -19 -3 -48 -8 -65 -12 -16 -4 -32 -7 -35 -8
-3 0 -14 -6 -26 -12 -11 -7 -31 -9 -44 -6 -17 5 -21 3 -15 -7 5 -8 4 -11 -2
-7 -6 4 -42 -4 -81 -17 -39 -13 -73 -22 -76 -18 -3 3 -6 -1 -6 -8 0 -7 -3 -11
-6 -7 -3 3 -30 -3 -60 -13 -30 -11 -61 -17 -69 -13 -8 3 -15 0 -15 -7 0 -9 11
-11 39 -6 23 3 42 2 46 -4 6 -10 44 6 57 25 4 5 10 7 13 3 4 -3 27 3 51 14 25
11 52 17 59 14 7 -2 16 1 18 8 3 7 20 12 40 11 20 0 34 2 31 6 -2 4 31 14 74
23 42 9 91 22 107 28 17 5 57 14 90 20 78 12 115 27 115 46 0 13 -3 12 -20 -3
-17 -15 -20 -16 -20 -3 0 9 7 21 15 28 16 13 10 34 -7 24 -6 -4 -8 1 -6 12 3
19 49 28 47 10 0 -5 5 -12 12 -17 11 -6 10 -9 -4 -15 -9 -3 -17 -10 -17 -16 0
-5 4 -7 8 -4 10 6 8 -21 -2 -44 -4 -9 -20 -17 -37 -18 -17 -1 -39 -6 -48 -11
-9 -5 -26 -7 -39 -5 -14 3 -21 0 -17 -6 3 -5 21 -10 38 -11 27 0 29 -2 12 -9
-18 -8 -18 -9 -2 -9 26 -1 68 23 101 58 31 32 37 72 17 109 -6 11 -7 22 -4 26
3 3 1 6 -5 6 -7 0 -13 10 -13 23 -1 16 -2 18 -6 5 -5 -21 -23 -24 -23 -5 0 8
-4 7 -10 -3 -5 -8 -10 -11 -10 -6 0 5 -7 3 -15 -4 -12 -10 -15 -10 -15 3 0 25
22 35 93 40 78 6 112 24 122 64 10 39 23 53 54 53 25 -1 61 -20 61 -34 0 -12
-28 -6 -40 8 -6 8 -17 13 -25 10 -10 -4 -7 -11 9 -28 14 -15 25 -19 34 -13 14
11 16 -1 3 -22 -11 -17 -31 -6 -31 17 0 11 -8 4 -20 -16 -12 -20 -26 -32 -34
-29 -15 6 -36 -11 -36 -27 0 -6 5 -5 12 2 17 17 29 15 22 -3 -4 -8 -14 -15
-23 -15 -9 0 -22 -5 -29 -12 -6 -6 -15 -8 -19 -4 -4 4 -1 11 7 16 23 14 5 22
-34 15 -20 -4 -33 -11 -30 -17 3 -5 14 -6 25 -3 13 5 19 2 19 -10 0 -9 -5 -13
-11 -10 -7 5 -9 -6 -4 -36 4 -25 2 -57 -4 -72 -12 -32 -74 -96 -94 -98 -15 -2
-56 -8 -81 -12 -11 -2 -22 -10 -24 -17 -4 -10 6 -11 42 -6 25 4 46 4 46 1 0
-11 -69 -35 -84 -29 -25 9 -20 53 7 64 13 5 16 9 7 9 -9 1 -25 -6 -37 -14 -12
-9 -64 -23 -115 -31 -124 -21 -296 -77 -344 -112 -21 -16 -45 -40 -53 -54 -14
-27 -12 -40 73 -408 24 -103 60 -200 74 -200 4 0 19 20 33 43 15 23 86 137
159 252 150 237 270 436 270 447 0 4 20 17 44 28 24 12 52 29 63 39 26 24 99
15 97 -12 -3 -36 42 -174 67 -206 23 -29 29 -32 48 -22 11 6 56 14 98 17 263
20 516 -174 615 -471 21 -63 23 -88 23 -245 -1 -192 -9 -233 -77 -365 -18 -35
-24 -54 -15 -47 27 23 87 156 109 244 27 108 22 272 -13 398 -12 47 -26 87
-30 90 -8 6 -24 52 -21 63 1 4 -2 7 -8 7 -5 0 -14 10 -21 21 -9 17 -8 20 3 15
7 -4 3 1 -9 10 -13 9 -23 20 -23 25 0 4 -13 22 -30 40 -16 18 -26 37 -23 43 3
6 3 8 -1 5 -4 -4 -26 11 -49 33 -131 124 -312 180 -487 148 -58 -11 -62 -10
-80 12 -11 13 -19 32 -20 44 0 11 -4 24 -9 30 -4 5 -13 28 -18 51 -10 40 -4
67 17 69 5 1 14 2 18 3 7 1 9 46 2 46 -1 0 -2 15 -3 33 -1 17 2 32 7 32 4 0 6
7 3 14 -4 9 -1 13 6 10 7 -2 31 11 54 31 30 26 51 35 76 35 20 0 39 -5 42 -11
5 -7 -7 -8 -40 -3 -42 6 -47 5 -43 -12 2 -11 10 -19 18 -20 8 -1 17 -2 20 -3
15 -7 81 -8 70 -1 -7 4 -24 7 -37 5 -15 -1 -21 1 -15 7 5 5 39 11 76 13 36 2
71 7 78 11 6 4 27 8 45 10 41 2 40 1 49 39 l7 30 -24 -22 c-34 -31 -156 -52
-202 -35 -34 12 -93 7 -103 -9 -2 -4 -10 -7 -17 -5 -7 1 -8 1 -4 -2 12 -6 -24
-42 -42 -42 -12 0 -10 5 8 19 23 18 23 19 5 24 -16 4 -16 5 -1 6 11 1 17 10
18 29 l1 27 13 -30 c13 -27 15 -28 20 -9 6 19 13 20 139 20 148 -1 160 3 170
60 8 40 44 61 77 44 31 -17 23 -32 -12 -25 -22 5 -34 3 -40 -6 -11 -18 -12
-52 0 -45 4 3 6 -6 3 -19 -2 -15 0 -25 7 -25 6 0 11 -5 11 -11 0 -6 -7 -8 -16
-5 -12 5 -15 2 -9 -11 14 -34 23 -86 18 -99 -7 -18 18 -103 34 -116 27 -22 53
35 29 60 -3 2 -1 14 5 25 8 14 8 18 0 13 -8 -5 -10 7 -6 41 4 26 8 71 10 98 2
28 4 52 5 55 1 3 1 19 0 35 -1 34 -32 65 -64 65 -28 0 -66 -39 -66 -68 0 -15
-9 -26 -25 -32 -30 -11 -229 -15 -246 -5 -6 4 -15 1 -20 -6 -4 -7 -11 -10 -15
-6 -4 3 -1 13 6 22 11 13 10 14 -3 10 -8 -4 -18 -2 -22 4 -4 7 5 11 22 12 26
0 26 1 7 9 -16 6 -20 15 -17 33 5 24 -23 62 -45 62 -4 0 -11 3 -17 6 -5 4 -20
2 -32 -4z m77 -139 c11 3 11 1 -2 -9 -10 -8 -31 -48 -49 -89 -25 -59 -30 -83
-25 -117 9 -67 -18 -54 -43 20 -11 32 -10 42 2 60 7 12 17 36 21 52 4 17 16
49 28 73 19 41 21 42 37 24 9 -10 23 -17 31 -14z m430 20 c0 7 5 10 10 7 6 -4
1 -18 -12 -35 -22 -27 -49 -26 -32 2 5 7 9 16 10 21 1 4 2 10 3 15 1 4 6 0 11
-8 7 -11 10 -11 10 -2z m10 -68 c0 -10 -4 -22 -10 -25 -10 -6 -7 -132 5 -179
6 -21 4 -27 -4 -25 -7 3 -12 8 -12 12 0 3 -5 20 -12 35 -14 33 -10 175 4 166
5 -3 9 7 9 21 0 15 4 24 10 20 6 -3 10 -15 10 -25z m-550 -8 c0 -5 -11 -14
-25 -20 -32 -15 -35 -15 -35 -2 0 6 9 10 20 10 11 0 20 5 20 10 0 6 5 10 10
10 6 0 10 -4 10 -8z m-165 -12 c-3 -5 -13 -10 -21 -10 -8 0 -14 5 -14 10 0 6
9 10 21 10 11 0 17 -4 14 -10z m155 -30 c0 -5 -7 -10 -16 -10 -8 0 -12 5 -9
10 3 6 10 10 16 10 5 0 9 -4 9 -10z m-10 -34 c0 -8 -4 -16 -8 -18 -5 -1 -12
-16 -16 -31 -5 -21 -4 -27 5 -21 7 4 9 3 5 -4 -3 -6 -2 -13 4 -17 5 -3 10 -11
10 -17 0 -6 -11 -3 -25 6 -14 9 -25 13 -25 9 0 -5 -14 -16 -30 -25 -38 -21
-38 -17 -1 20 17 16 33 42 36 58 4 16 8 35 11 42 5 17 34 15 34 -2z m-288
-205 c7 -10 21 -17 30 -15 30 4 30 -13 -2 -64 -16 -27 -30 -52 -30 -55 0 -15
-88 -136 -94 -130 -4 4 -4 0 -1 -8 4 -10 -4 -29 -19 -47 -15 -16 -26 -33 -26
-38 0 -4 -20 -37 -44 -73 -24 -36 -64 -100 -90 -141 -66 -108 -84 -128 -95
-110 -5 8 -7 18 -5 22 3 4 2 8 -3 8 -15 0 -70 216 -58 228 3 3 0 11 -5 17 -9
10 -23 67 -56 225 -4 19 2 34 23 57 27 30 67 57 88 59 6 0 19 4 30 8 11 5 34
12 50 18 17 5 39 14 50 19 25 11 158 34 207 36 26 1 41 -4 50 -16z"/>
<path d="M1954 1899 c-12 -24 -24 -60 -28 -79 -3 -19 -3 -28 1 -20 18 43 26
66 29 79 1 8 8 17 14 21 7 4 10 15 8 25 -2 12 -10 4 -24 -26z"/>
<path d="M935 2048 c-33 -5 -100 -8 -150 -8 -93 -1 -151 -8 -141 -18 3 -3 -1
-13 -10 -23 -10 -11 -12 -19 -4 -24 6 -3 9 -1 8 6 -2 6 3 14 10 16 14 6 16
-19 2 -33 -6 -6 17 -20 68 -38 42 -16 83 -37 90 -47 7 -10 27 -19 44 -21 34
-3 39 -14 52 -95 3 -21 19 -88 34 -149 24 -95 26 -115 15 -130 -7 -10 -11 -24
-9 -31 3 -6 -1 -10 -7 -7 -7 2 -23 -9 -35 -26 l-22 -30 -63 33 c-35 17 -70 34
-78 36 -73 19 -103 22 -163 17 -38 -4 -85 -14 -105 -24 -20 -9 -39 -17 -42
-17 -14 0 -127 -92 -154 -125 -16 -21 -33 -36 -38 -33 -4 2 -7 1 -6 -4 1 -4
-2 -18 -6 -31 -6 -19 -10 -20 -23 -10 -13 11 -14 10 -3 -9 9 -18 9 -23 0 -23
-7 0 -9 -3 -6 -7 4 -3 3 -11 -2 -17 -12 -16 -62 -150 -69 -188 -14 -68 -5
-308 11 -325 4 -3 7 -12 7 -19 0 -19 20 -67 26 -62 2 3 0 18 -6 34 -19 50 -25
106 -24 239 0 117 3 139 30 220 31 90 78 175 135 240 17 19 36 35 42 35 6 0
-2 -13 -18 -30 -16 -16 -23 -30 -17 -30 19 0 14 -12 -20 -50 -18 -20 -28 -27
-24 -16 5 16 4 17 -9 6 -20 -17 -19 -25 5 -27 11 -1 20 1 20 5 0 19 84 95 143
129 24 13 49 0 41 -21 -3 -7 3 -19 12 -27 10 -8 15 -9 11 -3 -9 16 19 38 39
30 10 -4 14 -13 11 -26 -3 -11 -1 -20 3 -20 5 0 8 18 8 41 0 33 -3 39 -17 33
-26 -11 -64 -10 -68 2 -5 16 27 26 42 14 9 -7 15 -7 19 -1 4 5 -2 12 -11 15
-10 2 -4 4 12 3 l30 -2 3 -200 c2 -110 7 -202 12 -205 13 -8 -58 -105 -76
-104 -8 1 -11 -3 -7 -9 4 -6 7 -23 7 -37 1 -14 5 -31 9 -38 5 -6 5 -12 0 -13
-4 0 5 -6 21 -14 29 -12 29 -13 8 -19 -12 -4 -20 -12 -17 -17 7 -11 -3 -11
-30 1 -17 7 -17 9 -3 9 14 1 16 5 8 25 -5 13 -6 27 -3 30 4 3 1 6 -5 6 -7 0
-11 3 -11 8 1 4 1 22 0 40 -1 25 -5 32 -21 32 -11 0 -20 -4 -20 -10 0 -5 5
-10 10 -10 6 0 10 -4 10 -10 0 -5 -7 -7 -15 -4 -11 5 -14 -1 -12 -25 1 -23 7
-31 21 -31 15 0 17 -5 12 -31 -5 -28 -3 -31 36 -49 29 -13 45 -15 49 -8 4 6
15 2 28 -11 12 -12 19 -27 15 -33 -4 -7 -12 -2 -21 13 l-13 24 6 -27 c9 -43
-5 -54 -31 -24 -12 14 -26 22 -31 18 -4 -4 -3 0 4 9 11 15 8 18 -25 26 -32 7
-38 13 -39 36 -1 16 -6 33 -13 40 -6 6 -11 20 -11 31 0 10 -3 16 -7 12 -11
-11 -12 -76 -2 -76 5 0 9 5 9 11 0 5 5 7 11 3 8 -4 7 -9 -2 -15 -18 -11 6 -56
35 -65 12 -4 27 -15 34 -26 7 -10 17 -16 22 -13 19 12 20 -17 1 -44 -33 -45
-15 -41 39 10 48 45 63 80 40 94 -6 4 -7 11 -4 17 5 7 0 9 -14 6 -27 -7 -50
17 -26 26 18 7 64 -35 64 -60 0 -7 4 -14 9 -14 5 0 17 -3 27 -7 13 -5 15 -3 9
8 -6 11 -5 11 5 2 9 -8 19 -9 36 -1 27 12 59 3 48 -13 -4 -8 -3 -9 4 -5 7 4
26 -8 44 -29 18 -19 37 -35 42 -35 5 0 -4 12 -20 28 -39 36 -69 72 -60 72 4 0
29 -21 56 -46 28 -26 50 -42 50 -36 0 6 -6 12 -12 15 -7 2 -10 8 -6 12 4 4 13
4 20 -2 7 -5 32 -15 56 -23 40 -13 54 -32 31 -45 -6 -4 -8 -13 -5 -21 7 -20
-4 -17 -20 3 -7 10 -14 13 -14 7 0 -17 30 -39 39 -28 17 19 34 75 25 83 -5 5
-62 30 -126 55 -94 37 -121 45 -137 37 -20 -11 -71 -15 -71 -6 0 3 9 15 20 27
20 22 21 22 119 -9 14 -4 14 -3 1 6 -23 16 -200 73 -213 68 -7 -3 0 -8 16 -12
15 -4 27 -11 27 -17 0 -5 3 -7 8 -5 4 3 14 2 23 -2 15 -5 15 -8 -1 -23 -15
-16 -18 -16 -48 12 -18 16 -35 29 -37 29 -3 0 -13 4 -21 9 -20 11 -25 92 -6
92 6 0 12 -4 12 -10 0 -10 56 -43 80 -47 20 -2 129 -45 157 -61 12 -6 23 -22
25 -34 2 -12 9 -23 15 -25 9 -3 9 3 -1 22 -8 15 -12 34 -9 42 3 7 2 13 -3 12
-22 -4 -34 2 -34 16 0 19 11 19 35 1 11 -8 16 -19 12 -30 -4 -9 -2 -16 3 -16
6 0 10 5 10 10 0 6 7 10 15 10 8 0 15 -7 15 -16 0 -8 14 -20 30 -25 17 -6 30
-17 30 -25 0 -22 -29 -29 -43 -10 -7 10 -17 13 -25 7 -9 -5 3 -15 38 -29 47
-20 54 -20 73 -7 12 8 17 15 11 15 -5 0 -15 -5 -20 -10 -6 -6 -18 -8 -27 -4
-13 4 -14 9 -4 19 20 22 87 3 87 -25 0 -25 10 -50 20 -50 5 0 4 16 -2 36 -5
20 -7 46 -4 59 3 12 2 25 -2 29 -4 4 -7 12 -7 18 0 5 -35 21 -77 35 -56 18
-78 30 -78 41 0 15 2 15 10 2 5 -8 10 -11 10 -6 0 5 6 3 14 -3 9 -8 16 -8 20
-2 4 5 19 7 34 5 15 -3 35 -6 45 -7 12 -1 17 -7 14 -19 -3 -10 -1 -18 4 -18 5
0 9 9 9 19 0 28 20 37 21 9 1 -15 3 -17 6 -7 5 21 50 22 81 1 19 -12 25 -13
31 -3 6 9 18 3 43 -21 38 -35 67 -98 45 -98 -18 1 -47 25 -47 40 0 9 6 8 20
-5 19 -17 19 -17 7 14 -9 24 -16 30 -31 25 -14 -5 -18 -3 -13 9 7 19 -16 30
-32 14 -6 -6 -11 -21 -11 -33 0 -24 -26 -40 -33 -20 -3 7 -3 24 0 39 6 33 -10
36 -24 4 -9 -18 -7 -28 6 -44 20 -25 62 -38 54 -16 -3 7 -2 13 3 12 20 -3 28
2 15 10 -9 6 -11 16 -6 32 7 21 9 18 21 -26 17 -65 17 -73 -1 -49 -12 16 -14
17 -15 3 0 -20 22 -30 40 -19 8 5 19 6 25 2 5 -4 25 -12 42 -18 32 -11 33 -11
43 25 13 47 13 84 0 76 -14 -8 -70 54 -70 78 0 20 -16 23 -23 5 -2 -7 9 -28
24 -45 25 -29 49 -87 49 -121 0 -27 -19 0 -26 36 -4 20 -16 49 -26 65 -35 49
-55 55 -258 72 -36 3 -100 11 -143 17 -42 5 -86 8 -97 5 -11 -3 -23 -1 -26 4
-7 13 -44 11 -44 -2 0 -5 5 -7 10 -4 5 3 10 3 11 -2 0 -4 2 -15 4 -24 3 -16
-10 -17 -53 -4 -19 6 -22 12 -17 34 4 14 11 28 16 29 5 2 7 8 3 13 -8 14 -24
0 -24 -22 0 -11 -7 -19 -16 -19 -9 0 -12 -5 -8 -11 4 -7 1 -10 -7 -7 -8 3 -15
10 -15 16 -3 25 -5 27 -14 12 -8 -13 -10 -12 -10 3 0 11 9 32 21 48 18 26 25
42 28 70 1 3 16 26 34 50 l33 44 -9 137 c-9 130 -11 137 -32 142 -13 3 -29 4
-37 1 -7 -3 -19 4 -27 16 -11 19 -11 21 4 15 9 -3 39 -6 66 -6 28 0 48 -3 46
-7 -3 -5 9 -9 26 -9 40 -2 141 -57 114 -62 -10 -2 -27 4 -38 14 -10 9 -22 15
-25 11 -3 -3 -14 3 -25 14 -20 20 -39 25 -39 9 0 -5 -6 -7 -12 -5 -10 4 -12
-24 -10 -127 l3 -133 25 30 c14 17 39 50 56 75 18 25 56 72 85 105 29 33 53
65 53 72 0 6 8 18 19 25 10 7 18 15 18 18 -1 3 25 30 58 60 32 30 69 65 81 78
l23 22 -26 -4 c-46 -9 -58 7 -77 104 -11 50 -23 93 -27 96 -12 7 -12 5 7 -79
20 -93 33 -127 50 -127 13 0 7 -11 -44 -86 -11 -17 -11 -16 -2 4 12 24 8 52
-22 182 -11 47 -21 99 -23 115 -5 51 -25 116 -35 110 -16 -10 -70 -12 -76 -3
-3 5 0 15 6 23 10 13 8 15 -13 15 -13 0 -38 7 -53 15 l-29 15 30 -3 c17 -2 37
-7 44 -11 8 -5 16 -4 20 2 4 6 13 -3 21 -21 11 -24 15 -27 18 -14 2 9 8 17 13
17 6 0 7 -4 4 -10 -3 -5 1 -10 9 -10 9 0 16 8 16 18 1 31 16 -8 30 -75 7 -35
17 -63 22 -63 6 0 7 7 4 16 -3 9 -9 34 -12 57 -9 65 -24 89 -51 82 -13 -3 -23
-1 -23 5 0 5 9 10 19 10 11 0 32 10 48 23 45 38 72 42 29 4 -29 -24 -38 -38
-33 -51 9 -22 43 -13 72 19 11 13 30 26 42 29 27 9 40 44 22 61 -20 18 -66 23
-134 13z m119 -24 c32 -12 15 -21 -25 -14 -42 8 -96 -1 -222 -36 -66 -18 -68
-18 -102 1 -56 30 -39 40 61 38 49 -2 107 1 129 6 48 11 137 13 159 5z m-50
-49 c-15 -23 -43 -45 -58 -45 -5 0 66 69 72 70 1 0 -5 -11 -14 -25z m-298 -22
c-6 -6 -36 9 -36 18 0 5 9 4 20 -3 10 -7 18 -14 16 -15z m154 -23 c0 -5 -2
-10 -4 -10 -3 0 -8 5 -11 10 -3 6 -1 10 4 10 6 0 11 -4 11 -10z m-140 -492
c43 -13 150 -68 150 -78 0 -19 -16 -15 -68 16 -71 43 -119 57 -202 57 -81 0
-132 -14 -193 -53 -26 -16 -50 -30 -54 -30 -16 0 32 39 74 60 93 47 197 57
293 28z m-150 -27 c0 -5 -19 -12 -42 -16 -24 -5 -45 -9 -48 -10 -37 -13 -67
-30 -96 -51 -25 -20 -34 -23 -34 -11 0 15 134 92 148 84 4 -3 16 -1 27 4 27
10 45 11 45 0z m42 -3 c-9 -9 -15 -9 -24 0 -9 9 -7 12 12 12 19 0 21 -3 12
-12z m83 -4 c31 -7 79 -30 105 -51 8 -6 19 -12 25 -12 5 0 11 -4 13 -10 5 -16
-8 -12 -43 9 -45 29 -91 48 -130 56 -19 3 -35 11 -35 16 0 5 8 7 18 4 9 -3 31
-8 47 -12z m33 -72 c-3 -25 4 -33 24 -27 17 6 20 4 14 -10 -4 -13 -2 -16 9
-11 22 8 18 -11 -4 -24 -11 -5 -25 -27 -31 -47 -7 -21 -17 -42 -22 -48 -6 -6
-7 -3 -3 10 7 20 6 20 -9 1 -9 -11 -16 -16 -16 -10 0 5 -3 41 -6 81 -5 53 -3
75 7 86 13 14 39 13 37 -1z m-89 -29 c0 -21 0 -78 0 -128 2 -93 -12 -140 -49
-162 -15 -10 -17 2 -19 148 -1 87 0 163 4 169 3 5 19 10 35 10 28 0 30 -3 29
-37z m-299 -3 c0 -5 -4 -10 -10 -10 -5 0 -10 5 -10 10 0 6 5 10 10 10 6 0 10
-4 10 -10z m455 -473 c-4 -8 36 -33 110 -69 81 -41 113 -62 109 -72 -5 -12
-12 -11 -47 2 -23 9 -48 24 -55 34 -7 10 -17 16 -22 13 -4 -3 -13 2 -20 10 -7
8 -18 15 -24 15 -7 0 -27 16 -46 35 -33 34 -53 38 -48 8 2 -9 -5 -17 -14 -18
-24 -4 -23 10 2 35 22 22 62 28 55 7z"/>
<path d="M731 1268 c0 -9 -4 -25 -7 -35 -5 -17 -5 -17 6 0 6 10 9 25 7 35 -4
15 -5 15 -6 0z"/>
<path d="M1920 1979 c-15 -28 -7 -34 14 -10 11 12 13 21 7 25 -5 4 -15 -3 -21
-15z"/>
<path d="M967 1803 c8 -32 16 -62 17 -68 22 -100 29 -125 37 -125 11 0 11 3
-2 37 -5 15 -11 43 -13 63 -1 19 -7 44 -13 55 -6 11 -14 35 -18 52 -3 18 -10
35 -15 38 -4 3 -1 -21 7 -52z"/>
<path d="M2355 1840 c-3 -5 -1 -10 4 -10 6 0 11 5 11 10 0 6 -2 10 -4 10 -3 0
-8 -4 -11 -10z"/>
<path d="M2267 1801 c-4 -17 -3 -21 5 -13 5 5 8 16 6 23 -3 8 -7 3 -11 -10z"/>
<path d="M2301 1764 c0 -11 3 -14 6 -6 3 7 2 16 -1 19 -3 4 -6 -2 -5 -13z"/>
<path d="M2266 1753 c-8 -25 -66 -60 -112 -69 -47 -8 -94 -31 -94 -45 0 -15
21 -53 34 -61 17 -12 89 5 156 36 37 16 77 57 85 86 6 19 0 15 -24 -17 -34
-47 -51 -58 -119 -79 -67 -20 -99 -18 -107 6 -9 27 0 37 35 44 17 3 43 8 58
11 15 3 39 16 53 28 28 24 54 66 46 74 -3 2 -8 -4 -11 -14z"/>
<path d="M2338 1733 c7 -3 16 -2 19 1 4 3 -2 6 -13 5 -11 0 -14 -3 -6 -6z"/>
<path d="M1598 1704 c-3 -2 -25 -8 -49 -13 -42 -8 -42 -9 -9 -9 45 0 88 12 74
21 -6 3 -13 4 -16 1z"/>
<path d="M2238 1675 c-20 -14 -60 -30 -88 -36 -60 -13 -64 -36 -4 -31 21 2 40
8 42 12 2 5 10 6 19 3 11 -4 14 -2 9 5 -4 8 -2 10 8 6 9 -3 19 5 28 23 8 15
20 27 27 25 7 -1 10 2 6 8 -8 13 -5 14 -47 -15z"/>
<path d="M1435 1670 c-14 -7 -8 -8 20 -3 22 3 42 7 44 9 9 8 -45 2 -64 -6z"/>
<path d="M1810 1648 c0 -9 4 -27 9 -40 4 -13 11 -46 15 -74 6 -50 5 -52 -22
-63 -16 -7 -41 -9 -56 -5 -29 7 -56 -9 -56 -34 0 -13 2 -13 18 1 20 19 62 23
62 7 0 -5 -6 -10 -14 -10 -7 0 -20 -10 -28 -22 -15 -22 -15 -22 -61 21 -26 24
-47 39 -47 33 0 -13 77 -82 92 -82 6 0 2 -10 -9 -22 -28 -31 -46 -68 -37 -76
6 -6 14 5 17 25 0 5 11 19 24 33 13 14 23 28 23 32 0 19 34 45 54 42 11 -2 15
-2 9 2 -23 10 -14 32 18 43 44 15 48 14 59 -11 8 -22 9 -22 9 4 1 14 7 29 14
31 8 4 6 6 -4 6 -16 1 -39 82 -39 138 0 30 -20 30 -21 1 -1 -21 -2 -21 -6 -3
-7 27 -23 43 -23 23z m60 -146 c0 -13 -4 -20 -10 -17 -5 3 -10 21 -10 38 0 24
3 28 10 17 5 -8 10 -25 10 -38z"/>
<path d="M1095 1532 c-11 -9 -27 -26 -35 -37 -8 -11 3 -4 23 14 33 31 42 42
35 41 -2 -1 -12 -8 -23 -18z"/>
<path d="M1840 1446 c0 -7 8 -24 19 -37 10 -13 35 -80 55 -149 44 -146 103
-321 113 -329 3 -3 4 1 0 11 -18 52 -89 277 -113 363 -15 55 -34 106 -41 113
-7 7 -13 20 -13 28 0 8 -4 14 -10 14 -5 0 -10 -6 -10 -14z"/>
<path d="M1030 1430 c0 -36 111 -522 118 -516 4 4 -66 329 -95 443 -9 34 -13
69 -10 77 4 9 2 16 -3 16 -6 0 -10 -9 -10 -20z"/>
<path d="M1923 1443 c-25 -10 -12 -67 93 -406 56 -177 80 -226 56 -113 -6 28
-12 69 -13 91 -2 22 -6 45 -10 50 -4 6 -26 52 -49 104 -28 64 -38 97 -31 104
7 7 24 -18 52 -79 23 -49 42 -95 42 -101 0 -7 3 -11 5 -8 8 7 71 -158 64 -169
-2 -5 -10 0 -15 10 -10 18 -11 17 -18 -6 -11 -38 -10 -60 1 -60 6 0 10 7 10
15 0 18 29 34 74 39 100 13 180 -137 125 -234 -12 -22 -26 -37 -30 -35 -4 3
-5 -4 -2 -16 4 -12 11 -18 20 -15 8 3 12 2 9 -3 -6 -9 110 -111 126 -111 6 0
-5 12 -24 28 -18 15 -45 37 -58 50 -13 12 -26 22 -30 22 -3 0 -6 9 -7 20 -2
28 32 26 82 -5 22 -14 45 -25 50 -25 6 0 -21 19 -58 41 -38 23 -66 43 -64 46
3 2 44 -17 91 -43 48 -25 89 -44 92 -41 5 5 -32 30 -46 32 -3 0 -29 14 -57 30
-67 38 -72 65 -11 58 24 -2 46 -9 49 -15 4 -6 12 -7 19 -3 7 4 15 3 19 -3 3
-6 29 -14 56 -17 28 -4 48 -5 45 -2 -10 9 -193 58 -204 54 -6 -2 -19 4 -28 14
-15 16 -15 18 0 25 9 4 21 6 25 5 5 -1 6 3 2 9 -3 6 -11 7 -17 4 -8 -5 -9 -1
-5 10 5 14 3 17 -8 12 -29 -11 -15 14 18 30 41 21 83 54 69 54 -6 0 -14 -5
-17 -10 -4 -6 -23 -19 -43 -29 l-38 -19 -22 34 c-12 18 -22 38 -22 44 0 5 -8
7 -17 4 -12 -4 -8 3 10 20 15 14 27 29 26 33 -4 21 2 34 12 27 8 -4 7 -9 -2
-15 -10 -6 -10 -9 -2 -9 7 0 25 12 40 26 l28 25 -27 -16 c-26 -16 -47 -7 -33
15 3 6 4 10 2 10 -2 0 -21 -26 -43 -57 l-39 -57 -5 34 -5 34 -14 -29 c-12 -28
-14 -29 -22 -10 -4 11 -8 92 -8 179 -1 88 -3 157 -6 154 -3 -2 -5 -66 -6 -141
0 -83 -4 -135 -10 -132 -5 4 -9 17 -9 31 0 14 -4 23 -9 20 -10 -7 -57 122 -61
169 -1 15 -4 13 -10 -9 -6 -20 -5 -37 4 -55 23 -45 86 -208 86 -222 0 -25 -17
6 -50 93 -19 51 -37 85 -43 81 -6 -3 -7 -1 -3 5 6 11 -1 35 -43 141 -29 71
-18 79 13 10 l24 -54 -5 51 c-3 32 -1 54 6 58 6 4 11 0 11 -10 0 -11 4 -14 13
-7 19 14 77 10 87 -7 8 -12 10 -10 10 10 0 20 2 22 10 10 5 -8 10 -91 11 -185
0 -161 1 -167 14 -120 7 27 10 52 6 55 -4 3 -7 57 -7 120 1 97 3 114 16 111
26 -6 45 -9 53 -10 5 -1 6 -11 2 -23 -5 -21 -5 -21 9 2 12 19 15 21 16 8 0
-10 6 -15 13 -13 20 7 79 -49 71 -68 -3 -9 -11 -14 -17 -10 -5 3 -8 2 -5 -3 3
-5 -16 -42 -43 -83 -27 -41 -48 -76 -46 -77 2 -2 34 42 71 98 l68 103 -24 19
c-13 10 -57 35 -98 55 -72 34 -80 36 -181 36 -71 0 -111 -4 -121 -13 -13 -10
-18 -9 -29 4 -18 21 5 36 46 29 23 -4 27 -3 15 6 -12 8 -8 10 18 6 17 -2 32
-1 32 3 0 4 21 4 48 0 26 -4 57 -7 69 -5 12 1 20 -2 17 -7 -3 -5 5 -6 18 -3
15 4 48 -6 95 -29 107 -52 195 -144 255 -266 25 -52 52 -119 58 -147 7 -29 14
-53 17 -53 7 0 -7 57 -30 125 -38 112 -116 226 -203 295 -31 25 -51 46 -45 48
16 5 108 -72 154 -127 50 -62 115 -192 133 -271 29 -119 23 -365 -11 -442 -5
-13 -3 -18 8 -18 18 0 24 15 37 93 23 147 22 249 -4 366 -44 199 -197 383
-384 462 -69 29 -87 33 -177 33 -81 1 -111 -3 -157 -21 -53 -21 -57 -21 -55
-4 1 13 7 17 22 13 20 -5 20 -5 1 16 -11 12 -20 22 -20 21 -1 0 -7 -3 -13 -6z
m217 -43 c0 -5 -9 -10 -21 -10 -11 0 -17 5 -14 10 3 6 13 10 21 10 8 0 14 -4
14 -10z m123 -12 c26 -5 47 -14 47 -18 0 -5 14 -11 30 -15 17 -4 30 -11 30
-16 0 -12 -1 -12 -51 10 -24 10 -70 25 -101 32 -32 7 -58 15 -58 19 0 8 28 5
103 -12z m-177 5 c-4 -4 -31 -13 -59 -19 -29 -6 -61 -15 -72 -19 -19 -7 -19
-7 -3 10 9 10 28 18 42 18 14 0 26 3 26 8 0 5 17 9 37 9 20 0 33 -3 29 -7z
m-111 -93 c-3 -5 -11 -10 -16 -10 -6 0 -7 5 -4 10 3 6 11 10 16 10 6 0 7 -4 4
-10z"/>
<path d="M941 1389 c-35 -41 -41 -52 -31 -64 7 -8 15 -15 19 -15 11 0 72 118
63 124 -4 2 -27 -18 -51 -45z"/>
<path d="M1605 1408 c-25 -43 -30 -88 -8 -88 15 0 42 27 43 43 0 4 -9 3 -20
-3 -24 -13 -24 -10 -5 37 19 46 14 52 -10 11z"/>
<path d="M1820 1403 c0 -4 5 -15 10 -23 8 -13 10 -13 10 2 0 9 -4 20 -10 23
-5 3 -10 3 -10 -2z"/>
<path d="M1001 1386 c0 -11 -10 -39 -21 -62 l-21 -42 29 -43 c30 -46 52 -100
52 -128 -1 -9 -7 -1 -16 18 -23 54 -26 30 -3 -30 39 -101 62 -249 39 -249 -5
0 -10 8 -11 18 0 14 -2 14 -9 -3 -7 -19 -8 -19 -15 -2 -4 10 -14 16 -24 13
-45 -13 -81 -17 -80 -9 3 19 -2 25 -15 14 -9 -8 -21 -8 -39 -2 -14 5 -28 7
-33 3 -4 -4 -5 -2 -1 4 3 6 -8 10 -29 11 -22 1 -34 -4 -34 -12 0 -16 26 -22
155 -35 55 -6 122 -13 149 -17 44 -5 48 -4 43 13 -3 10 -9 37 -12 59 -10 61
-42 211 -65 303 -12 46 -25 109 -29 140 -5 32 -9 48 -10 38z m-1 -117 c0 -6
-4 -7 -10 -4 -5 3 -10 11 -10 16 0 6 5 7 10 4 6 -3 10 -11 10 -16z"/>
<path d="M1654 1363 c-7 -29 -34 -74 -34 -58 0 6 -13 -16 -28 -48 -15 -32 -31
-55 -34 -51 -4 3 -4 13 -2 22 3 10 -3 6 -13 -8 -10 -13 -28 -34 -40 -46 -13
-13 -19 -26 -13 -29 5 -3 21 11 36 32 26 38 26 38 20 8 l-7 -30 20 25 c11 14
26 36 33 50 7 14 21 34 31 45 26 28 66 103 59 109 -12 13 -22 5 -28 -21z"/>
<path d="M1695 1229 c-55 -89 -124 -197 -153 -240 -77 -118 -90 -148 -101
-239 -10 -78 -40 -150 -62 -150 -5 0 -9 -8 -9 -17 0 -15 2 -16 10 -3 5 8 13
11 17 6 4 -4 0 -13 -10 -20 -23 -18 -22 -29 3 -16 11 6 20 16 20 23 0 7 10 32
22 57 12 25 23 56 25 70 13 99 16 117 27 150 9 28 97 162 102 157 2 -2 -3 -41
-11 -88 -16 -91 -14 -218 5 -307 17 -75 23 -58 9 23 -14 84 -7 270 15 350 31
114 150 309 201 329 29 11 12 -41 -27 -82 -48 -50 -111 -161 -139 -247 -21
-61 -24 -89 -24 -215 0 -130 3 -153 27 -225 26 -77 71 -169 88 -180 4 -3 -6
21 -23 52 -83 154 -104 338 -62 546 15 76 100 223 158 274 l35 31 -16 61 c-9
34 -19 61 -22 61 -3 -1 -50 -73 -105 -161z"/>
<path d="M1551 1316 c-12 -14 -12 -21 -1 -42 12 -22 15 -23 29 -10 8 9 11 19
7 23 -4 4 -11 1 -15 -6 -5 -8 -11 -9 -15 -3 -3 6 -1 12 5 14 6 2 10 12 8 22
-4 18 -5 18 -18 2z"/>
<path d="M871 1306 c-15 -18 -4 -63 17 -69 22 -6 78 -100 108 -180 13 -34 23
-57 23 -50 2 39 -56 154 -125 250 -8 11 -11 24 -6 27 10 6 92 -86 92 -103 0
-6 5 -11 10 -11 23 0 -3 44 -71 121 -30 33 -32 34 -48 15z"/>
<path d="M413 1281 c-10 -10 -25 -22 -34 -27 -15 -8 -15 -11 2 -28 17 -18 18
-18 12 2 -3 14 2 24 18 32 19 11 24 10 36 -6 7 -10 13 -24 13 -31 0 -7 5 -13
10 -13 6 0 4 13 -5 30 -8 16 -15 36 -15 45 0 20 -15 19 -37 -4z"/>
<path d="M279 1263 c-13 -16 -12 -17 4 -4 16 13 21 21 13 21 -2 0 -10 -8 -17
-17z"/>
<path d="M1497 1234 c-30 -50 -35 -73 -12 -54 9 7 13 15 10 18 -2 3 5 20 16
39 12 19 19 36 17 38 -2 2 -16 -16 -31 -41z"/>
<path d="M478 1248 c7 -27 17 -29 17 -4 0 13 -5 23 -11 23 -6 0 -9 -9 -6 -19z"/>
<path d="M765 1168 c-62 -80 -79 -109 -82 -142 -6 -51 -13 -60 -13 -15 l0 34
-25 -37 c-25 -38 -33 -78 -15 -78 6 0 10 -5 10 -11 0 -21 28 -37 73 -44 38 -6
47 -4 47 7 0 22 -10 28 -35 18 -16 -6 -29 -4 -44 6 -22 16 -29 36 -10 31 6 -1
14 4 16 11 4 11 1 12 -16 3 -23 -13 -45 -6 -35 10 3 6 20 9 37 7 32 -3 32 -3
32 45 0 38 5 53 23 67 12 10 22 23 22 29 0 6 6 10 13 9 6 -2 11 3 10 10 -2 6
1 12 5 12 5 0 19 19 32 43 12 23 29 49 37 59 8 9 10 19 5 22 -5 3 -44 -40 -87
-96z"/>
<path d="M1840 1233 c0 -12 -20 -46 -45 -76 -25 -31 -45 -62 -45 -70 0 -8 -11
-34 -24 -59 -23 -43 -23 -45 -5 -56 15 -10 17 -9 13 3 -8 19 2 54 20 78 14 18
16 17 53 -6 21 -14 50 -37 66 -52 15 -14 27 -23 27 -20 0 3 6 0 14 -7 8 -7 11
-17 8 -22 -3 -5 0 -6 6 -2 7 4 18 -7 28 -31 9 -21 20 -46 25 -55 15 -30 11
-51 -8 -44 -10 3 2 -12 27 -34 l45 -40 -37 5 c-21 4 -44 3 -50 -2 -14 -8 -19
-9 -55 -11 -13 -1 -23 -6 -23 -12 0 -6 9 -6 26 0 14 6 29 8 34 5 5 -3 11 -1
15 5 8 13 35 13 35 -1 0 -6 -13 -16 -30 -22 -16 -6 -31 -16 -34 -23 -2 -6 19
1 47 17 29 16 54 29 57 29 3 0 7 -11 8 -26 1 -15 -2 -23 -8 -19 -6 4 -7 11 -4
17 4 6 -2 6 -15 -1 -11 -7 -21 -14 -21 -17 0 -3 5 -2 10 1 6 4 18 1 26 -6 13
-11 13 -15 2 -23 -7 -6 -19 -20 -27 -31 -7 -11 3 -3 22 17 38 38 44 38 41 1 0
-12 3 -20 7 -17 16 10 9 -13 -12 -40 -12 -15 -19 -29 -16 -32 3 -3 15 9 27 25
12 17 26 31 31 31 6 0 3 -10 -5 -22 -9 -13 -12 -27 -7 -37 5 -9 7 -24 6 -33
-2 -10 0 -18 4 -18 5 0 11 28 14 62 5 55 3 65 -19 91 -13 15 -31 53 -40 83 -8
30 -20 54 -25 54 -5 0 -9 8 -9 18 0 9 -12 44 -26 78 -19 43 -37 67 -63 84 -72
46 -171 123 -171 132 0 5 6 6 13 2 26 -16 123 -89 149 -113 15 -13 30 -22 33
-20 2 3 -11 43 -30 88 -19 46 -40 100 -46 120 -7 20 -18 45 -25 56 -14 19 -14
19 -14 -2z m30 -54 c0 -6 -4 -7 -10 -4 -5 3 -10 11 -10 16 0 6 5 7 10 4 6 -3
10 -11 10 -16z m-8 -30 c12 -20 41 -91 44 -106 4 -21 -14 -15 -65 23 -51 38
-54 50 -23 87 17 19 31 18 44 -4z"/>
<path d="M540 1213 c0 -40 -16 -61 -23 -32 -4 13 -9 20 -12 17 -4 -3 0 -19 8
-35 8 -15 18 -48 21 -73 7 -44 6 -45 -9 -20 -11 17 -14 19 -10 6 3 -11 0 -24
-7 -29 -9 -6 -8 -7 5 -3 9 3 17 1 17 -4 0 -6 -5 -10 -11 -10 -8 0 -8 -4 -2
-12 5 -7 10 -23 11 -36 1 -23 0 -23 -26 -6 -15 9 -38 26 -52 39 -14 12 -50 39
-80 61 -30 21 -62 45 -70 53 -12 12 -15 12 -18 0 -2 -8 -13 -34 -24 -59 -11
-24 -21 -62 -22 -82 0 -21 -4 -38 -8 -38 -5 0 -8 -9 -8 -20 0 -21 16 -28 18
-7 0 6 4 23 7 37 4 14 7 35 7 47 0 13 4 20 9 17 5 -3 9 6 9 19 0 14 8 35 18
47 l17 21 89 -69 c81 -63 113 -102 83 -102 -5 0 -7 -3 -4 -6 4 -4 -2 -15 -13
-24 -18 -16 -18 -18 -4 -24 22 -8 24 -8 24 7 0 8 10 19 23 25 13 6 16 11 7 11
-9 1 -6 7 10 18 14 10 28 17 31 16 3 -1 3 15 0 35 -4 20 -6 83 -5 140 1 56 0
102 -2 102 -2 0 -4 -12 -4 -27z"/>
<path d="M350 1223 c0 -5 -11 -21 -25 -37 -19 -22 -22 -32 -14 -43 13 -15 23
-18 14 -4 -3 6 3 23 13 40 14 23 21 28 30 19 13 -13 15 -8 6 16 -6 16 -24 22
-24 9z"/>
<path d="M842 1205 c-7 -14 -12 -33 -12 -41 0 -8 -4 -12 -10 -9 -5 3 -10 0
-10 -8 0 -8 -7 -20 -15 -27 -9 -7 -13 -15 -11 -18 3 -2 -3 -16 -14 -30 -11
-13 -18 -28 -15 -32 3 -4 -2 -10 -10 -14 -8 -3 -15 -10 -15 -16 0 -6 6 -8 13
-4 6 4 2 -4 -11 -18 -18 -20 -20 -28 -11 -34 7 -4 14 -3 16 2 20 50 137 246
150 251 12 5 12 7 1 14 -22 14 -34 10 -46 -16z"/>
<path d="M1616 1215 c-3 -8 -1 -15 3 -15 5 0 11 7 15 15 3 8 1 15 -3 15 -5 0
-11 -7 -15 -15z"/>
<path d="M2404 1152 c-21 -31 -46 -69 -57 -84 -14 -21 -15 -26 -4 -22 8 3 17
15 20 26 3 11 10 17 16 13 6 -3 9 0 6 7 -3 8 9 33 26 57 l32 43 29 -31 c15
-16 27 -36 26 -43 -3 -14 -72 -68 -87 -68 -5 0 -12 -7 -15 -16 -3 -8 21 4 54
27 33 23 57 45 54 50 -3 5 2 6 10 3 25 -9 18 8 -14 40 -17 16 -30 33 -30 37 0
4 -6 9 -14 12 -9 4 -28 -15 -52 -51z"/>
<path d="M222 1174 c-6 -12 -8 -33 -5 -45 3 -17 2 -20 -5 -11 -11 16 -37 -46
-52 -127 -11 -58 -12 -270 -1 -253 4 6 14 -25 24 -68 10 -44 21 -81 25 -84 6
-3 -25 134 -39 174 -1 3 -1 32 1 65 3 100 18 184 35 201 9 10 14 26 11 37 -3
11 6 42 20 68 13 27 24 52 24 57 0 18 -29 8 -38 -14z m9 -21 c-12 -20 -14 -14
-5 12 4 9 9 14 11 11 3 -2 0 -13 -6 -23z m-21 -108 c0 -5 -5 -3 -10 5 -8 12
-10 12 -10 1 0 -8 -2 -12 -5 -9 -3 3 -2 13 1 22 5 14 9 15 15 4 5 -7 9 -17 9
-23z"/>
<path d="M886 1167 c-18 -31 -59 -106 -99 -177 -10 -19 -23 -39 -28 -45 -15
-16 -10 -25 15 -25 13 0 26 -6 29 -12 2 -7 8 -10 12 -6 5 5 0 17 -10 28 -18
19 -18 21 1 56 26 49 83 114 99 114 7 0 15 5 17 12 2 6 14 -6 25 -28 15 -30
18 -45 11 -58 -9 -16 -7 -16 10 -7 20 11 20 13 5 49 -32 76 -30 75 -66 49 -55
-41 -64 -40 -19 2 40 36 42 42 30 60 -13 18 -14 18 -32 -12z"/>
<path d="M1593 1173 c-9 -22 2 -25 20 -5 15 17 16 19 1 19 -9 0 -18 -7 -21
-14z"/>
<path d="M390 1171 c0 -6 4 -13 10 -16 6 -3 7 1 4 9 -7 18 -14 21 -14 7z"/>
<path d="M1381 1046 c-72 -115 -90 -155 -47 -102 l23 30 -2 -30 c-1 -16 -10
-42 -20 -57 -17 -26 -19 -27 -36 -11 -32 29 -30 10 2 -24 30 -32 64 -47 39
-17 -9 11 -8 20 9 43 33 47 42 80 29 102 -9 15 -9 24 1 44 8 14 17 23 22 21 4
-3 10 1 13 7 3 7 3 1 0 -14 -4 -17 -2 -28 4 -28 17 0 25 39 12 55 -13 15 -5
55 11 55 6 0 7 -9 4 -20 -8 -25 7 -26 28 -2 21 23 22 33 1 25 -13 -5 -15 -2
-9 15 16 52 -19 14 -84 -92z"/>
<path d="M417 1120 c10 -11 19 -20 21 -20 1 0 -2 9 -8 20 -6 11 -15 20 -20 20
-6 0 -2 -9 7 -20z"/>
<path d="M1505 1129 c-11 -17 1 -21 15 -4 8 9 8 15 2 15 -6 0 -14 -5 -17 -11z"/>
<path d="M1546 1109 c-28 -33 -33 -49 -13 -49 24 0 41 19 43 49 1 17 1 31 -1
31 -2 0 -15 -14 -29 -31z m24 -7 c0 -11 -22 -32 -32 -32 -5 0 -4 9 2 20 11 20
30 28 30 12z"/>
<path d="M370 1099 c54 -47 141 -111 145 -107 3 2 -7 16 -20 30 -13 14 -22 28
-19 31 2 2 -3 10 -13 18 -15 12 -16 12 -9 -5 6 -19 6 -19 -12 -3 -10 9 -22 17
-26 17 -4 0 -14 6 -21 13 -32 28 -45 37 -52 37 -4 -1 8 -15 27 -31z"/>
<path d="M2246 1115 c-3 -9 -6 -22 -5 -28 0 -7 5 -1 10 12 5 13 8 26 5 28 -2
2 -6 -3 -10 -12z"/>
<path d="M480 1080 c6 -11 13 -20 16 -20 2 0 0 9 -6 20 -6 11 -13 20 -16 20
-2 0 0 -9 6 -20z"/>
<path d="M1478 1083 c-8 -10 -18 -27 -22 -38 -5 -14 1 -11 18 10 23 27 32 45
23 45 -2 0 -11 -8 -19 -17z"/>
<path d="M2494 1072 c-17 -15 -68 -53 -113 -85 -44 -33 -78 -63 -75 -68 7 -12
15 -12 11 1 -1 5 36 36 83 69 47 33 93 68 102 77 16 15 19 14 42 -9 14 -15 26
-33 26 -42 0 -8 5 -15 11 -15 6 0 9 3 7 8 -2 4 -12 26 -23 50 -11 23 -24 42
-30 42 -5 0 -24 -13 -41 -28z"/>
<path d="M1450 954 c-97 -150 -92 -139 -79 -167 14 -32 36 -42 34 -16 -1 10
-5 22 -10 26 -4 5 -5 2 -1 -4 4 -7 2 -13 -3 -13 -20 0 -5 55 27 99 17 23 34
52 37 62 4 10 10 19 14 19 4 0 17 18 30 40 40 72 7 41 -49 -46z"/>
<path d="M2074 1005 c3 -22 6 -49 6 -60 1 -18 1 -19 11 -3 7 13 5 30 -6 60
l-16 43 5 -40z"/>
<path d="M1675 1010 c-3 -5 -1 -10 4 -10 6 0 11 5 11 10 0 6 -2 10 -4 10 -3 0
-8 -4 -11 -10z"/>
<path d="M2274 1012 c3 -6 -1 -15 -10 -20 -9 -5 -15 -14 -13 -20 2 -5 12 0 22
13 12 17 14 26 5 31 -6 4 -8 3 -4 -4z"/>
<path d="M290 1006 c0 -2 7 -7 16 -10 8 -3 12 -2 9 4 -6 10 -25 14 -25 6z"/>
<path d="M977 1003 c-4 -3 -3 -11 3 -18 15 -18 20 -83 7 -89 -7 -2 -1 -5 12
-5 19 -1 22 3 18 22 -3 12 -9 39 -12 60 -7 36 -15 44 -28 30z"/>
<path d="M1403 985 c-9 -25 4 -29 17 -6 7 15 7 21 0 21 -6 0 -13 -7 -17 -15z"/>
<path d="M1027 955 c3 -22 7 -42 9 -44 8 -9 2 45 -6 64 -7 14 -8 8 -3 -20z"/>
<path d="M1667 983 c-4 -3 -7 -18 -6 -32 1 -26 1 -25 10 3 9 31 7 41 -4 29z"/>
<path d="M2566 975 c-4 -13 -2 -14 14 -5 23 13 26 20 6 20 -8 0 -16 -7 -20
-15z"/>
<path d="M1688 920 c-1 -27 -2 -58 -2 -67 -1 -12 10 -19 32 -24 38 -8 42 -2 7
11 -26 10 -31 32 -19 77 4 15 11 20 22 16 11 -4 8 2 -7 15 -13 12 -26 22 -28
22 -1 0 -4 -22 -5 -50z"/>
<path d="M1755 950 c3 -5 8 -10 11 -10 2 0 4 5 4 10 0 6 -5 10 -11 10 -5 0 -7
-4 -4 -10z"/>
<path d="M2569 939 c-23 -19 -23 -20 -2 -10 35 17 40 14 47 -36 4 -33 2 -49
-6 -55 -10 -6 -10 -8 0 -8 7 0 20 7 28 15 10 9 11 15 4 15 -7 0 -9 9 -5 23 5
18 4 19 -5 7 -10 -12 -11 -11 -6 9 5 25 -8 61 -23 61 -5 0 -19 -9 -32 -21z"/>
<path d="M700 941 c0 -10 30 -24 37 -17 3 2 -5 9 -16 16 -12 6 -21 7 -21 1z"/>
<path d="M1787 929 c7 -7 15 -10 18 -7 3 3 -2 9 -12 12 -14 6 -15 5 -6 -5z"/>
<path d="M191 914 c0 -11 3 -14 6 -6 3 7 2 16 -1 19 -3 4 -6 -2 -5 -13z"/>
<path d="M1773 906 c15 -14 33 -26 40 -26 13 1 -14 24 -48 42 -13 7 -10 1 8
-16z"/>
<path d="M2470 915 c-14 -8 -20 -14 -15 -14 6 0 21 6 35 14 14 8 21 14 15 14
-5 0 -21 -6 -35 -14z"/>
<path d="M1156 904 c-3 -9 -6 -23 -6 -32 0 -14 2 -14 9 -3 7 11 11 9 21 -8 9
-18 9 -22 -2 -20 -42 5 -49 -3 -13 -16 22 -8 41 -15 41 -15 6 0 -3 37 -11 47
-5 7 -15 18 -21 25 -6 8 -9 19 -6 26 6 18 -5 15 -12 -4z"/>
<path d="M1647 887 c-6 -37 -2 -210 5 -247 12 -56 21 -80 30 -80 5 0 6 4 3 10
-11 18 -19 94 -19 188 -1 50 -4 92 -8 92 -4 0 -3 13 2 30 5 16 5 32 1 35 -5 2
-11 -10 -14 -28z"/>
<path d="M2515 909 c-4 -6 -5 -12 -2 -15 2 -3 7 2 10 11 7 17 1 20 -8 4z"/>
<path d="M1825 900 c4 -6 11 -8 16 -5 14 9 11 15 -7 15 -8 0 -12 -5 -9 -10z"/>
<path d="M583 892 c-8 -5 -9 -13 -3 -22 6 -10 13 -11 19 -5 13 13 -1 36 -16
27z"/>
<path d="M950 890 c-13 -8 -12 -10 3 -10 9 0 17 5 17 10 0 12 -1 12 -20 0z"/>
<path d="M2459 877 c-19 -12 -48 -33 -65 -46 -20 -16 -21 -18 -4 -7 14 8 44
25 68 37 23 13 42 26 42 31 0 10 3 11 -41 -15z"/>
<path d="M192 829 c-2 -76 6 -129 20 -129 5 0 6 6 1 13 -4 6 -10 50 -14 97
l-6 85 -1 -66z"/>
<path d="M410 881 c0 -9 -9 -11 -27 -7 -27 5 -27 5 -5 -6 17 -9 26 -8 34 0 6
6 9 15 5 19 -4 3 -7 1 -7 -6z"/>
<path d="M1869 871 c14 -10 38 -27 55 -36 l31 -18 -25 24 c-24 23 -66 49 -79
49 -3 0 5 -9 18 -19z"/>
<path d="M2133 878 c3 -9 1 -18 -4 -20 -6 -2 6 -16 28 -31 32 -23 35 -27 15
-27 -12 0 -22 -5 -22 -10 0 -6 8 -10 18 -8 26 5 29 -38 3 -45 -12 -3 -21 0
-22 6 -2 32 -9 52 -19 55 -7 3 -8 8 -1 16 8 9 4 16 -14 26 -36 19 -39 8 -15
-48 23 -54 20 -77 -11 -69 -16 4 -14 -1 9 -32 14 -20 37 -46 49 -57 l22 -22
13 32 c7 17 13 37 13 45 0 8 6 16 14 19 9 3 12 0 9 -9 -4 -8 -9 -21 -13 -30
-9 -24 23 -33 51 -14 13 8 26 26 30 40 3 14 10 22 15 19 23 -14 5 14 -23 36
-21 16 -33 20 -36 12 -4 -14 -32 -16 -32 -2 0 12 45 24 59 16 12 -8 41 3 41
16 0 6 -6 5 -15 -2 -13 -10 -15 -9 -15 8 0 26 -20 72 -31 72 -5 0 -6 -7 -2
-16 4 -12 2 -15 -8 -12 -8 3 -13 13 -13 22 1 9 -4 16 -12 16 -17 0 -17 2 1
-50 19 -53 19 -52 -2 -48 -14 3 -17 11 -15 42 3 33 1 38 -13 32 -11 -4 -25 2
-38 16 -14 16 -18 18 -14 6z m127 -58 c0 -5 -5 -10 -11 -10 -5 0 -7 5 -4 10 3
6 8 10 11 10 2 0 4 -4 4 -10z m5 -80 c3 -5 1 -10 -5 -10 -6 0 -8 -5 -5 -10 4
-6 11 -8 16 -5 17 11 9 -11 -12 -33 -11 -12 -25 -19 -31 -15 -8 4 -4 10 10 16
29 13 28 25 -4 33 -19 5 -32 0 -54 -21 -16 -16 -27 -32 -24 -36 3 -5 -2 -6
-10 -3 -9 3 -16 9 -17 13 0 3 -3 19 -5 35 -4 25 -2 28 15 23 11 -3 40 1 63 8
54 17 55 17 63 5z"/>
<path d="M2140 691 c0 -25 6 -27 13 -6 4 8 2 17 -3 20 -6 4 -10 -3 -10 -14z"/>
<path d="M295 860 c3 -5 8 -10 11 -10 2 0 4 5 4 10 0 6 -5 10 -11 10 -5 0 -7
-4 -4 -10z"/>
<path d="M1878 833 c28 -21 47 -40 41 -41 -5 -2 -16 1 -23 8 -9 7 -16 7 -20 1
-7 -10 8 -16 67 -27 46 -8 47 0 5 22 -18 9 -49 30 -68 45 -19 16 -39 29 -44
29 -4 0 14 -17 42 -37z"/>
<path d="M1264 830 c1 -16 7 -35 15 -42 11 -11 12 -9 2 9 -8 16 -8 22 1 25 6
2 9 12 5 21 -10 27 -25 19 -23 -13z"/>
<path d="M2051 855 c1 -19 18 -51 18 -35 0 8 -4 22 -9 30 -5 8 -9 11 -9 5z"/>
<path d="M375 836 c11 -8 24 -12 28 -9 11 7 -12 23 -32 23 -11 0 -9 -4 4 -14z"/>
<path d="M1788 818 c5 -5 16 -8 23 -6 8 3 3 7 -10 11 -17 4 -21 3 -13 -5z"/>
<path d="M2540 820 c-11 -8 -7 -9 15 -4 37 8 45 14 19 14 -10 0 -26 -5 -34
-10z"/>
<path d="M2640 821 c0 -6 -20 -13 -45 -17 -25 -3 -48 -10 -51 -15 -3 -5 1 -7
8 -4 7 2 28 6 46 9 l33 4 -2 -53 c-2 -50 -4 -53 -22 -44 -10 6 -21 8 -25 5 -8
-9 1 -15 35 -22 l31 -6 -2 76 c0 42 -2 76 -3 76 -2 0 -3 -4 -3 -9z"/>
<path d="M2673 755 c0 -44 2 -61 4 -37 2 23 2 59 0 80 -2 20 -4 1 -4 -43z"/>
<path d="M550 805 c7 -8 17 -15 22 -15 6 0 5 7 -2 15 -7 8 -17 15 -22 15 -6 0
-5 -7 2 -15z"/>
<path d="M1683 721 c2 -54 10 -107 16 -117 10 -16 11 -11 6 24 -5 27 -3 42 4
42 6 0 11 5 11 11 0 5 -4 8 -9 4 -5 -3 -12 -1 -16 5 -3 5 -2 10 2 10 7 0 8 40
3 113 0 4 -5 7 -11 7 -8 0 -10 -29 -6 -99z"/>
<path d="M1838 803 c7 -3 16 -2 19 1 4 3 -2 6 -13 5 -11 0 -14 -3 -6 -6z"/>
<path d="M1760 793 c8 -2 22 -7 30 -10 8 -3 28 -7 45 -9 16 -3 34 -9 40 -16 6
-7 6 -9 0 -5 -6 3 -21 -1 -35 -9 -31 -17 -19 -17 45 0 l50 13 -45 13 c-25 7
-58 16 -74 21 -30 9 -84 12 -56 2z"/>
<path d="M2405 790 c-19 -8 -19 -9 3 -9 12 -1 22 4 22 9 0 6 -1 10 -2 9 -2 0
-12 -4 -23 -9z"/>
<path d="M1300 780 c0 -5 7 -10 15 -10 8 0 15 5 15 10 0 6 -7 10 -15 10 -8 0
-15 -4 -15 -10z"/>
<path d="M2435 770 c-11 -5 -33 -9 -49 -9 -45 -1 -28 -9 79 -36 111 -28 138
-27 45 2 -68 21 -79 35 -34 44 26 6 26 7 4 7 -14 0 -34 -3 -45 -8z"/>
<path d="M2155 760 c4 -6 11 -8 16 -5 14 9 11 15 -7 15 -8 0 -12 -5 -9 -10z"/>
<path d="M2070 750 c0 -5 5 -10 10 -10 6 0 10 5 10 10 0 6 -4 10 -10 10 -5 0
-10 -4 -10 -10z"/>
<path d="M2295 750 c3 -5 8 -10 11 -10 2 0 4 5 4 10 0 6 -5 10 -11 10 -5 0 -7
-4 -4 -10z"/>
<path d="M1378 715 c2 -20 -3 -43 -13 -59 -10 -14 -13 -26 -9 -26 5 0 19 16
32 35 12 19 18 35 13 35 -6 0 -8 9 -6 19 2 11 -2 22 -9 24 -8 3 -11 -5 -8 -28z"/>
<path d="M1845 720 c-11 -4 -36 -13 -55 -19 l-35 -10 38 5 c37 4 77 20 77 29
0 6 0 6 -25 -5z"/>
<path d="M828 708 c5 -5 16 -8 23 -6 8 3 3 7 -10 11 -17 4 -21 3 -13 -5z"/>
<path d="M683 703 c9 -2 23 -2 30 0 6 3 -1 5 -18 5 -16 0 -22 -2 -12 -5z"/>
<path d="M212 670 c0 -14 2 -19 5 -12 2 6 2 18 0 25 -3 6 -5 1 -5 -13z"/>
<path d="M1040 652 c0 -21 7 -47 15 -58 14 -18 14 -17 5 10 -12 34 -7 56 13
56 15 0 16 -27 2 -49 -5 -10 -4 -12 3 -7 7 4 12 2 12 -4 0 -7 8 -9 20 -5 16 5
23 0 35 -27 10 -24 14 -27 15 -13 0 16 2 17 9 5 6 -8 7 -18 5 -22 -3 -5 6 -6
20 -2 35 8 33 -2 -4 -21 -36 -19 -40 -19 -40 0 0 8 -3 14 -7 13 -16 -5 -53 23
-53 39 0 14 -2 15 -12 4 -11 -10 -6 -18 21 -42 19 -16 32 -31 28 -35 -10 -10
-56 5 -77 26 -20 20 -20 20 -20 -1 0 -11 5 -17 10 -14 6 3 10 2 10 -3 0 -6
-51 -9 -121 -7 -91 1 -123 5 -131 16 -6 10 -7 7 -3 -11 6 -20 5 -23 -5 -13 -8
7 -25 9 -42 6 -21 -4 -27 -2 -25 8 2 8 2 11 0 6 -3 -4 -10 -4 -15 -1 -7 4 -8
2 -4 -4 7 -12 -42 -10 -82 2 -12 4 -22 3 -22 -2 0 -6 -9 -8 -20 -5 -11 3 -20
13 -20 22 0 14 2 14 10 1 9 -13 10 -13 10 0 0 8 3 26 6 40 5 22 3 21 -15 -8
-12 -18 -21 -40 -21 -50 0 -10 -5 -23 -11 -29 -8 -8 -7 -13 2 -19 15 -9 30
-10 164 -14 84 -3 104 -6 125 -24 l25 -21 -19 23 c-16 19 -17 22 -3 22 9 0 23
-10 31 -22 9 -12 16 -18 16 -12 0 5 -5 15 -12 22 -9 9 -8 12 5 12 9 0 17 -5
17 -11 0 -8 6 -7 17 2 13 11 17 11 21 1 3 -10 7 -10 18 -1 7 6 21 8 30 5 9 -4
23 -1 30 5 8 6 14 7 14 2 0 -16 176 4 205 23 45 29 89 54 108 60 9 4 17 10 17
15 0 13 -6 11 -50 -11 -22 -11 -40 -18 -40 -14 0 3 -14 -6 -31 -20 -17 -14
-34 -26 -37 -27 -4 0 -16 -2 -27 -4 -58 -11 -615 -8 -615 4 0 4 136 8 303 8
333 -1 355 2 390 62 13 22 22 27 41 24 18 -4 26 0 31 18 l7 22 19 -24 c15 -20
19 -21 19 -6 0 9 -4 17 -10 17 -5 0 -10 6 -10 14 0 8 -9 13 -22 12 -13 -1 -42
3 -65 10 -24 7 -43 10 -43 8 0 -4 57 -35 65 -34 27 1 35 -2 35 -11 0 -13 -52
-4 -94 17 -37 18 -41 18 -26 -1 15 -18 10 -18 -54 -1 -27 7 -44 16 -38 19 5 4
23 2 38 -3 23 -9 25 -9 15 4 -7 8 -10 21 -6 28 4 7 0 5 -8 -4 -13 -16 -16 -15
-42 12 -39 41 -55 39 -55 -8z m186 -73 c3 -6 2 -15 -2 -19 -12 -12 -38 5 -30
19 9 14 23 14 32 0z"/>
<path d="M1332 670 c-12 -19 -11 -20 8 -8 20 13 27 28 12 28 -4 0 -13 -9 -20
-20z"/>
<path d="M1922 653 c-24 -14 -41 -27 -39 -30 3 -2 26 10 53 26 58 37 46 41
-14 4z"/>
<path d="M2607 652 c17 -13 22 -24 18 -47 -6 -38 10 -13 19 30 6 28 5 30 -26
32 l-33 2 22 -17z"/>
<path d="M690 643 c0 -6 8 -17 18 -24 16 -13 16 -13 2 6 -8 11 -16 22 -17 24
-2 2 -3 0 -3 -6z"/>
<path d="M220 634 c0 -5 7 -19 15 -30 8 -10 15 -14 15 -8 0 5 -7 19 -15 30 -8
10 -15 14 -15 8z"/>
<path d="M603 614 c-8 -18 -8 -26 0 -31 7 -3 9 -3 5 2 -4 4 2 15 14 25 17 13
18 18 7 22 -9 4 -19 -4 -26 -18z"/>
<path d="M680 610 c12 -16 24 -30 26 -30 3 0 -4 14 -16 30 -12 17 -24 30 -26
30 -3 0 4 -13 16 -30z"/>
<path d="M1819 623 c-13 -17 -13 -17 6 -3 11 8 22 16 24 17 2 2 0 3 -6 3 -6 0
-17 -8 -24 -17z"/>
<path d="M266 610 c7 -29 43 -108 59 -129 24 -34 127 -133 131 -128 3 3 -23
34 -58 69 -44 43 -76 87 -101 138 -21 41 -35 64 -31 50z"/>
<path d="M2014 608 c-10 -12 -14 -18 -7 -15 6 4 13 4 16 0 2 -5 2 -3 1 4 -2 6
2 14 9 16 7 2 9 7 6 11 -3 3 -14 -4 -25 -16z"/>
<path d="M2659 600 c-7 -35 -4 -48 7 -38 3 4 4 21 2 40 l-3 33 -6 -35z"/>
<path d="M2249 610 c-20 -12 -82 -15 -97 -6 -7 4 -15 6 -18 4 -2 -3 -6 -49 -8
-104 -2 -54 -1 -76 1 -49 8 94 23 76 38 -44 2 -18 7 -36 11 -40 3 -3 4 17 0
44 -17 144 -18 170 -8 160 6 -5 14 -46 17 -90 9 -103 19 -113 13 -14 -3 41 -2
84 2 94 6 18 8 17 29 -4 l22 -22 -7 27 c-5 20 -4 25 7 22 8 -3 13 -11 11 -18
-2 -10 0 -11 10 -2 11 8 24 1 61 -34 26 -24 47 -42 47 -39 0 5 44 -31 76 -63
8 -7 14 -9 14 -5 0 5 -46 50 -103 100 -73 64 -108 88 -118 83z"/>
<path d="M1780 600 c-9 -6 -10 -10 -3 -10 6 0 15 5 18 10 8 12 4 12 -15 0z"/>
<path d="M541 559 c-21 -28 -21 -30 -3 -20 11 6 22 20 25 31 7 26 5 26 -22
-11z"/>
<path d="M994 573 c0 -10 -3 -29 -7 -43 -5 -20 -4 -19 8 5 16 34 19 55 7 55
-4 0 -8 -8 -8 -17z"/>
<path d="M1728 583 c-10 -2 -18 -8 -18 -13 0 -10 38 -1 46 11 5 9 1 10 -28 2z"/>
<path d="M2479 570 c13 -11 27 -20 32 -20 18 0 8 10 -23 25 l-33 16 24 -21z"/>
<path d="M2530 583 c0 -9 70 -53 84 -53 3 0 6 10 5 23 0 12 -3 16 -6 10 -6
-16 -33 -17 -33 -1 0 6 -3 8 -7 5 -3 -4 -15 0 -25 10 -10 9 -18 12 -18 6z"/>
<path d="M1110 569 c0 -5 5 -7 10 -4 6 3 10 8 10 11 0 2 -4 4 -10 4 -5 0 -10
-5 -10 -11z"/>
<path d="M1914 558 l-19 -23 25 20 c14 11 27 21 29 22 2 2 0 3 -6 3 -5 0 -18
-10 -29 -22z"/>
<path d="M226 550 c8 -29 93 -160 105 -160 7 0 -45 83 -78 125 -5 6 -14 21
-21 35 l-12 25 6 -25z"/>
<path d="M1949 549 l-24 -20 28 17 c15 9 27 18 27 20 0 8 -8 4 -31 -17z"/>
<path d="M601 534 c0 -11 3 -14 6 -6 3 7 2 16 -1 19 -3 4 -6 -2 -5 -13z"/>
<path d="M1267 543 c-4 -3 -7 -11 -7 -17 0 -6 5 -5 12 2 6 6 9 14 7 17 -3 3
-9 2 -12 -2z"/>
<path d="M1606 520 c7 -37 23 -74 30 -68 2 2 -5 26 -16 54 -17 41 -19 44 -14
14z"/>
<path d="M1680 541 c0 -18 12 -41 22 -41 7 0 6 5 -1 13 -6 8 -8 16 -5 19 3 3
1 9 -5 13 -6 3 -11 2 -11 -4z"/>
<path d="M1722 541 c-11 -7 -10 -9 3 -14 9 -4 14 -3 10 2 -3 5 1 12 7 14 7 3
9 6 3 6 -5 0 -16 -3 -23 -8z"/>
<path d="M2047 524 c-10 -13 -16 -30 -14 -37 4 -9 6 -8 6 1 1 18 27 43 35 34
4 -3 4 1 0 11 -8 21 -5 21 -27 -9z"/>
<path d="M470 525 c-10 -12 -10 -19 -2 -27 9 -9 12 -7 12 11 0 14 4 20 12 15
7 -4 8 -3 4 4 -9 15 -11 15 -26 -3z"/>
<path d="M2550 532 c0 -5 12 -14 26 -20 15 -8 22 -17 18 -25 -5 -9 -3 -8 7 1
12 11 10 16 -11 32 -27 21 -40 25 -40 12z"/>
<path d="M746 513 c-6 -14 -5 -15 5 -6 7 7 10 15 7 18 -3 3 -9 -2 -12 -12z"/>
<path d="M2001 507 c-13 -21 -12 -21 5 -5 10 10 16 20 13 22 -3 3 -11 -5 -18
-17z"/>
<path d="M2230 516 c0 -2 8 -10 18 -17 15 -13 16 -12 3 4 -13 16 -21 21 -21
13z"/>
<path d="M2636 505 c-9 -26 -7 -32 5 -12 6 10 9 21 6 23 -2 3 -7 -2 -11 -11z"/>
<path d="M1875 490 c-3 -6 1 -7 9 -4 18 7 21 14 7 14 -6 0 -13 -4 -16 -10z"/>
<path d="M2480 449 c25 -21 54 -44 65 -50 11 -6 7 2 -10 17 -16 15 -29 32 -27
37 1 4 -2 6 -8 2 -5 -3 -10 -1 -10 5 0 6 -4 9 -9 6 -5 -3 -11 1 -15 9 -3 8
-11 15 -18 15 -7 0 7 -19 32 -41z"/>
<path d="M500 470 c0 -5 5 -10 11 -10 5 0 7 5 4 10 -3 6 -8 10 -11 10 -2 0 -4
-4 -4 -10z"/>
<path d="M1996 465 c-3 -9 -6 -22 -5 -28 0 -7 5 -1 10 12 5 13 8 26 5 28 -2 2
-6 -3 -10 -12z"/>
<path d="M2091 464 c0 -11 3 -14 6 -6 3 7 2 16 -1 19 -3 4 -6 -2 -5 -13z"/>
<path d="M2647 439 c-4 -15 -2 -16 14 -6 23 14 24 24 5 24 -8 0 -17 -8 -19
-18z"/>
<path d="M2301 414 c0 -11 3 -14 6 -6 3 7 2 16 -1 19 -3 4 -6 -2 -5 -13z"/>
<path d="M970 410 c-9 -6 -10 -10 -3 -10 6 0 15 5 18 10 8 12 4 12 -15 0z"/>
<path d="M2503 396 c14 -13 23 -27 19 -32 -4 -4 -1 -4 6 0 11 6 8 13 -9 32
-12 13 -27 24 -32 24 -6 0 2 -11 16 -24z"/>
<path d="M2636 398 c3 -4 9 -8 15 -8 5 0 9 4 9 8 0 5 -7 9 -15 9 -8 0 -12 -4
-9 -9z"/>
<path d="M378 344 c64 -60 139 -90 229 -91 l78 -1 -70 8 c-38 5 -87 13 -107
18 -47 12 -108 50 -105 65 1 6 -5 12 -13 12 -8 1 -14 5 -13 11 1 5 -7 10 -18
11 -14 1 -10 -6 19 -33z"/>
<path d="M2202 360 c0 -14 2 -19 5 -12 2 6 2 18 0 25 -3 6 -5 1 -5 -13z"/>
<path d="M2182 335 c0 -16 2 -22 5 -12 2 9 2 23 0 30 -3 6 -5 -1 -5 -18z"/>
<path d="M1756 328 c10 -14 21 -24 23 -22 3 3 -6 15 -18 27 l-24 22 19 -27z"/>
<path d="M374 302 c8 -13 105 -72 119 -72 4 0 2 6 -5 14 -7 8 -15 12 -17 10
-3 -2 -15 3 -28 11 -13 8 -35 23 -50 33 -15 9 -24 11 -19 4z"/>
<path d="M548 303 c7 -3 16 -2 19 1 4 3 -2 6 -13 5 -11 0 -14 -3 -6 -6z"/>
<path d="M680 289 c0 -5 5 -7 10 -4 6 3 10 8 10 11 0 2 -4 4 -10 4 -5 0 -10
-5 -10 -11z"/>
<path d="M720 274 c-33 -13 -33 -14 -5 -8 17 3 34 10 40 15 11 11 8 11 -35 -7z"/>
<path d="M548 223 c7 -3 16 -2 19 1 4 3 -2 6 -13 5 -11 0 -14 -3 -6 -6z"/>
<path d="M1860 226 c0 -2 7 -9 15 -16 9 -7 15 -8 15 -2 0 5 -7 12 -15 16 -8 3
-15 4 -15 2z"/>
<path d="M1840 197 c0 -3 12 -12 26 -22 15 -9 23 -12 20 -6 -7 11 -46 35 -46
28z"/>
<path d="M1900 196 c0 -2 7 -7 16 -10 8 -3 12 -2 9 4 -6 10 -25 14 -25 6z"/>
<path d="M1955 167 c26 -18 87 -39 80 -27 -3 4 -19 11 -35 15 -16 4 -32 11
-35 16 -4 5 -11 9 -18 9 -6 0 -3 -6 8 -13z"/>
<path d="M2270 140 c-13 -8 -13 -10 2 -10 9 0 20 5 23 10 8 13 -5 13 -25 0z"/>
<path d="M1930 136 c0 -2 7 -7 16 -10 8 -3 12 -2 9 4 -6 10 -25 14 -25 6z"/>
<path d="M2076 129 c6 -10 54 -17 59 -9 3 4 -11 10 -29 12 -19 2 -33 1 -30 -3z"/>
<path d="M2198 123 c7 -3 16 -2 19 1 4 3 -2 6 -13 5 -11 0 -14 -3 -6 -6z"/>
<path d="M2095 90 c3 -5 11 -10 16 -10 6 0 7 5 4 10 -3 6 -11 10 -16 10 -6 0
-7 -4 -4 -10z"/>
</g>
</svg>
