<svg width="124" height="123" viewBox="0 0 124 123" fill="none" xmlns="http://www.w3.org/2000/svg">
<path d="M111.807 56.711C108.189 56.7372 104.57 56.711 100.742 56.711C100.742 56.1091 100.742 55.6642 100.742 55.2193C100.742 50.2208 100.716 45.2223 100.742 40.25C100.768 36.7693 99.6143 33.8121 97.0971 31.3783C94.6585 29.0229 92.2724 26.6415 89.9125 24.2076C87.5001 21.7215 84.5896 20.57 81.1546 20.5961C72.0296 20.6223 62.9309 20.5961 53.8059 20.6223C52.9144 20.6223 51.9704 20.57 51.1575 20.8578C49.8727 21.2766 48.4305 21.6953 47.4866 22.5851C43.3961 26.4583 39.3318 30.3838 35.5297 34.5449C32.5405 37.8161 33.0911 43.2595 36.3164 46.4C39.594 49.5666 44.8382 49.8806 48.2208 47.0019C49.8465 45.6149 51.3149 44.0447 52.8357 42.5529C54.1468 41.2968 55.2218 39.5434 56.7689 38.8891C58.3159 38.2349 60.335 38.7059 62.1442 38.6798C63.3766 38.6798 64.5828 38.6798 65.8152 38.6798C65.8676 38.8106 65.9201 38.9153 65.9725 39.0461C65.6316 39.3078 65.2383 39.5434 64.9237 39.8574C59.3123 45.4317 53.7272 51.0059 48.1421 56.6063C42.5308 62.2068 42.557 69.9008 48.1421 75.5012C52.4948 79.8717 56.8738 84.2159 61.2527 88.534C61.8033 89.0836 62.0393 89.6332 62.0393 90.4183C62.0131 96.9085 62.0131 116.51 62.0393 123H67.1525C67.1525 115.803 67.1525 95.5476 67.1787 88.3508C67.1787 87.5134 66.9427 86.9376 66.3396 86.3619C61.5149 81.5989 56.7427 76.8098 51.9442 72.0206C48.1683 68.2521 48.1683 63.9078 51.918 60.1393C60.4136 51.6602 68.9093 43.1549 77.405 34.6757C77.7196 34.3617 77.9818 34.0476 78.4014 33.6027C77.8769 33.5766 77.5361 33.5242 77.1952 33.5242C70.0106 33.5242 62.826 33.4981 55.6414 33.5504C55.0121 33.5504 54.2516 33.8906 53.7797 34.3355C51.0002 37.031 48.2994 39.8051 45.52 42.5006C43.1863 44.7512 39.7251 43.8876 38.886 40.8781C38.4927 39.4649 38.886 38.2087 39.8824 37.2142C43.3174 33.7336 46.7262 30.2791 50.266 26.9032C50.9478 26.2489 52.1277 25.8302 53.0979 25.804C62.6949 25.7255 72.2918 25.7517 81.8888 25.7517C83.4096 25.7517 84.7207 26.3012 85.7957 27.3742C88.4965 30.0698 91.2235 32.7915 93.9243 35.487C95.1829 36.7432 95.5762 38.2872 95.5762 39.9883C95.55 46.7925 95.5762 53.5968 95.5762 60.401C95.5762 60.8198 95.5762 61.2647 95.5762 61.8142C96.1531 61.8142 96.5726 61.8142 97.0184 61.8142C101.974 61.8142 106.93 61.8142 111.912 61.8142C114.482 61.8142 116.239 63.4106 116.239 65.6874C116.239 67.9642 114.482 69.5344 111.886 69.5344C105.75 69.5344 99.6143 69.5344 93.4785 69.5344C89.9387 69.5344 87.8672 67.4408 87.841 63.8817C87.8148 58.2551 87.841 52.6023 87.841 46.9757C87.841 46.5308 87.841 46.1121 87.841 45.9289C80.0533 53.7015 72.1345 61.6049 64.0584 69.6653C64.8712 70.4242 66.025 71.4449 67.1 72.5178C69.9581 75.3442 72.79 78.2229 75.6481 81.0755C76.8281 82.2532 77.4574 83.614 77.4574 85.2627C77.4574 93.454 77.4574 114.757 77.4574 122.948H82.623C82.6754 114.783 82.623 93.5325 82.6492 85.3412C82.6492 83.3261 82.2559 81.3895 81.1284 79.7146C80.4991 78.7464 79.7386 77.8304 78.9258 77.0191C76.3561 74.4021 73.7602 71.8374 71.0856 69.1681C74.8353 65.4519 78.5062 61.8142 82.151 58.2027C82.2296 58.1242 82.3345 58.0981 82.5967 57.9672C82.5967 60.0346 82.5705 61.9974 82.5967 63.9602C82.6754 70.0578 86.7659 74.5068 92.7706 74.6376C99.5356 74.7947 106.327 74.7685 113.092 74.5853C116.606 74.4806 119.149 72.4655 120.565 69.2727C121.955 66.1061 121.561 63.0442 119.464 60.2702C117.602 57.7578 114.954 56.6849 111.807 56.711Z" fill="white"/>
<path d="M29.8922 79.2173C31.0983 80.4473 32.3045 81.6773 33.432 82.855C36.3163 79.9501 39.0958 77.176 41.7704 74.4805C40.6691 73.3813 39.5153 72.2037 38.2043 70.8952C36.7359 72.413 35.2151 74.0094 33.6418 75.6582C31.1508 73.1458 26.0901 68.095 23.6253 65.6611L19.9805 69.2988C22.4191 71.7065 27.4798 76.7573 29.8922 79.2173Z" fill="white"/>
<path d="M47.8537 83.2738C44.4449 86.7021 41.0362 90.1304 37.575 93.5326C35.2413 95.8355 32.1734 95.9664 29.9184 93.7681C25.015 88.9528 17.5158 81.4419 12.6648 76.5481L9.0201 80.1858C13.7924 85.1319 21.3178 92.5904 26.2474 97.3796C29.8922 100.939 34.5858 101.462 38.9122 99.0021C39.4104 98.7143 39.8824 98.4002 40.2758 98.0077C44.2614 93.9251 48.247 89.8164 52.1802 85.76C51.21 84.8179 50.0563 83.6402 48.6665 82.2794C48.4043 82.5934 48.1683 82.986 47.8537 83.2738Z" fill="white"/>
<path d="M108.503 30.9332C117.025 30.9332 123.974 24.0243 124.026 15.519C124.026 7.01367 117.13 0.0523895 108.608 4.90916e-05C100.034 -0.0522913 93.0328 6.90899 93.0328 15.4666C93.0328 23.972 99.9814 30.9071 108.503 30.9332ZM108.687 5.15558C114.455 5.41728 119.097 10.1803 118.834 15.6237C118.572 21.3811 113.8 26.0132 108.346 25.7515C102.577 25.4898 97.9361 20.7269 98.1984 15.2835C98.4606 9.52601 103.259 4.92005 108.687 5.15558Z" fill="white"/>
<path d="M33.5631 20.6746C24.9626 20.6746 16.4407 20.6746 7.86636 20.6746C7.86636 22.3495 7.86636 23.9982 7.86636 25.6992C16.4931 25.6992 25.015 25.6992 33.5631 25.6992C33.5631 23.9982 33.5631 22.3756 33.5631 20.6746Z" fill="white"/>
<path d="M25.6968 33.7598C17.0962 33.7598 8.57433 33.7598 0 33.7598C0 35.4347 0 37.0834 0 38.7844C8.62677 38.7844 17.1487 38.7844 25.6968 38.7844C25.6968 37.0834 25.6968 35.4608 25.6968 33.7598Z" fill="white"/>
</svg>
